<svg width="10" height="9" viewBox="0 0 10 9" fill="none" xmlns="http://www.w3.org/2000/svg">
<g id="Frame 438">
<g clip-path="url(#clip0_1607_6864)">
<rect x="0.507812" y="0.748535" width="8.75823" height="7.5" rx="1.8797" fill="white"/>
<path id="Vector 1 (Stroke)" fill-rule="evenodd" clip-rule="evenodd" d="M4.82437 1.93603L0.507813 1.93603V2.06103H3.55929V3.5655H0.507813V3.6905H3.55929L3.55929 5.19496H0.507813V5.31996H3.55929V6.84675H0.507813V6.97175H4.82437V8.24853H4.94949V6.97175L9.26604 6.97175V6.84675L6.11725 6.84675V5.31996L9.26604 5.31996V5.19496L6.11725 5.19496V3.66818H9.26604V3.54318H5.99213V6.84675H3.68441L3.68441 2.06103L9.26604 2.06103V1.93603L4.94949 1.93603V0.748535H4.82437V1.93603Z" fill="black"/>
</g>
</g>
<defs>
<clipPath id="clip0_1607_6864">
<rect x="0.507812" y="0.748535" width="8.75823" height="7.5" rx="1.8797" fill="white"/>
</clipPath>
</defs>
</svg>
