<svg width="58" height="36" viewBox="0 0 58 36" fill="none" xmlns="http://www.w3.org/2000/svg">
<path d="M6.5 8C6.5 3.85787 9.85781 0.5 14 0.5H50C54.1422 0.5 57.5 3.85787 57.5 8V28C57.5 32.1421 54.1422 35.5 50 35.5H14C9.85781 35.5 6.5 32.1421 6.5 28V24.1744C6.5 23.4615 6.19568 22.7826 5.66354 22.3082L1.82566 18.8871C1.20726 18.3358 1.15282 17.3876 1.70407 16.7692L5.86618 12.1001C6.27441 11.6422 6.5 11.0501 6.5 10.4366V8Z" fill="white" stroke="#515151"/>
<path d="M46.75 26.4375C46.75 27.4818 46.3352 28.4833 45.5967 29.2217C44.8583 29.9602 43.8568 30.375 42.8125 30.375H19.1875C18.1432 30.375 17.1417 29.9602 16.4033 29.2217C15.6648 28.4833 15.25 27.4818 15.25 26.4375V15.6094H46.75V26.4375ZM42.1094 21.0937C42.1094 20.5343 41.8871 19.9978 41.4916 19.6022C41.096 19.2066 40.5594 18.9844 40 18.9844H36.625C36.0656 18.9844 35.529 19.2066 35.1334 19.6022C34.7379 19.9978 34.5156 20.5343 34.5156 21.0937V22.5C34.5156 23.0594 34.7379 23.596 35.1334 23.9916C35.529 24.3871 36.0656 24.6094 36.625 24.6094H40C40.5594 24.6094 41.096 24.3871 41.4916 23.9916C41.8871 23.596 42.1094 23.0594 42.1094 22.5V21.0937ZM19.1875 5.625H42.8125C43.8568 5.625 44.8583 6.03984 45.5967 6.77827C46.3352 7.51669 46.75 8.51821 46.75 9.5625V11.3906H15.25V9.5625C15.25 8.51821 15.6648 7.51669 16.4033 6.77827C17.1417 6.03984 18.1432 5.625 19.1875 5.625Z" fill="#202020"/>
<path d="M46.75 26.4375C46.75 27.4818 46.3352 28.4833 45.5967 29.2217C44.8583 29.9602 43.8568 30.375 42.8125 30.375H19.1875C18.1432 30.375 17.1417 29.9602 16.4033 29.2217C15.6648 28.4833 15.25 27.4818 15.25 26.4375V15.6094H46.75V26.4375ZM42.1094 21.0937C42.1094 20.5343 41.8871 19.9978 41.4916 19.6022C41.096 19.2066 40.5594 18.9844 40 18.9844H36.625C36.0656 18.9844 35.529 19.2066 35.1334 19.6022C34.7379 19.9978 34.5156 20.5343 34.5156 21.0937V22.5C34.5156 23.0594 34.7379 23.596 35.1334 23.9916C35.529 24.3871 36.0656 24.6094 36.625 24.6094H40C40.5594 24.6094 41.096 24.3871 41.4916 23.9916C41.8871 23.596 42.1094 23.0594 42.1094 22.5V21.0937ZM19.1875 5.625H42.8125C43.8568 5.625 44.8583 6.03984 45.5967 6.77827C46.3352 7.51669 46.75 8.51821 46.75 9.5625V11.3906H15.25V9.5625C15.25 8.51821 15.6648 7.51669 16.4033 6.77827C17.1417 6.03984 18.1432 5.625 19.1875 5.625Z" fill="black" fill-opacity="0.2"/>
<rect x="32.3097" y="12.109" width="15.7091" height="15.7091" rx="7.85455" fill="white"/>
<rect x="32.3097" y="12.109" width="15.7091" height="15.7091" rx="7.85455" stroke="#202020" stroke-width="0.654545"/>
<rect x="32.3097" y="12.109" width="15.7091" height="15.7091" rx="7.85455" stroke="black" stroke-opacity="0.2" stroke-width="0.654545"/>
<path d="M42.9519 17.6338L44.4901 21.5414L46.0217 17.6338H46.6435L44.7584 22.2811H44.2217L42.3301 17.6338H42.9519Z" fill="#202020"/>
<path d="M42.9519 17.6338L44.4901 21.5414L46.0217 17.6338H46.6435L44.7584 22.2811H44.2217L42.3301 17.6338H42.9519Z" fill="black" fill-opacity="0.2"/>
<path d="M38.5027 17.6338L40.0409 21.5414L41.5725 17.6338H42.1943L40.3092 22.2811H39.7725L37.8809 17.6338H38.5027Z" fill="#202020"/>
<path d="M38.5027 17.6338L40.0409 21.5414L41.5725 17.6338H42.1943L40.3092 22.2811H39.7725L37.8809 17.6338H38.5027Z" fill="black" fill-opacity="0.2"/>
<path d="M33.6855 19.9245C33.6855 19.6409 33.7335 19.3638 33.8295 19.0932C33.9299 18.8183 34.0739 18.5696 34.2615 18.3471C34.4535 18.1201 34.687 17.9412 34.9619 17.8103C35.2368 17.6751 35.5488 17.6074 35.8979 17.6074C36.3125 17.6074 36.6681 17.7034 36.9648 17.8954C37.2615 18.0831 37.4819 18.3252 37.6259 18.622L37.1612 18.9231C37.0695 18.7267 36.9517 18.5718 36.8077 18.4583C36.6681 18.3405 36.5154 18.2576 36.3495 18.2096C36.1881 18.1616 36.0288 18.1376 35.8717 18.1376C35.6143 18.1376 35.3852 18.19 35.1845 18.2947C34.9881 18.3994 34.8223 18.5391 34.687 18.7136C34.5517 18.8881 34.4492 19.0845 34.3794 19.3027C34.3139 19.5165 34.2812 19.7325 34.2812 19.9507C34.2812 20.1907 34.3205 20.422 34.399 20.6445C34.4819 20.8671 34.5954 21.0634 34.7394 21.2336C34.8834 21.4038 35.0535 21.5391 35.2499 21.6394C35.4463 21.7398 35.6601 21.79 35.8914 21.79C36.0528 21.79 36.2186 21.7616 36.3888 21.7049C36.559 21.6481 36.7183 21.5609 36.8666 21.4431C37.015 21.3209 37.1328 21.1638 37.2201 20.9718L37.711 21.2401C37.615 21.4714 37.4666 21.6678 37.2659 21.8292C37.0652 21.9907 36.8405 22.1129 36.5917 22.1958C36.3474 22.2787 36.1052 22.3201 35.8652 22.3201C35.5466 22.3201 35.2543 22.2525 34.9881 22.1172C34.7219 21.9776 34.4906 21.7943 34.2943 21.5674C34.1023 21.3361 33.9517 21.0787 33.8426 20.7951C33.7379 20.5071 33.6855 20.2169 33.6855 19.9245Z" fill="#202020"/>
<path d="M33.6855 19.9245C33.6855 19.6409 33.7335 19.3638 33.8295 19.0932C33.9299 18.8183 34.0739 18.5696 34.2615 18.3471C34.4535 18.1201 34.687 17.9412 34.9619 17.8103C35.2368 17.6751 35.5488 17.6074 35.8979 17.6074C36.3125 17.6074 36.6681 17.7034 36.9648 17.8954C37.2615 18.0831 37.4819 18.3252 37.6259 18.622L37.1612 18.9231C37.0695 18.7267 36.9517 18.5718 36.8077 18.4583C36.6681 18.3405 36.5154 18.2576 36.3495 18.2096C36.1881 18.1616 36.0288 18.1376 35.8717 18.1376C35.6143 18.1376 35.3852 18.19 35.1845 18.2947C34.9881 18.3994 34.8223 18.5391 34.687 18.7136C34.5517 18.8881 34.4492 19.0845 34.3794 19.3027C34.3139 19.5165 34.2812 19.7325 34.2812 19.9507C34.2812 20.1907 34.3205 20.422 34.399 20.6445C34.4819 20.8671 34.5954 21.0634 34.7394 21.2336C34.8834 21.4038 35.0535 21.5391 35.2499 21.6394C35.4463 21.7398 35.6601 21.79 35.8914 21.79C36.0528 21.79 36.2186 21.7616 36.3888 21.7049C36.559 21.6481 36.7183 21.5609 36.8666 21.4431C37.015 21.3209 37.1328 21.1638 37.2201 20.9718L37.711 21.2401C37.615 21.4714 37.4666 21.6678 37.2659 21.8292C37.0652 21.9907 36.8405 22.1129 36.5917 22.1958C36.3474 22.2787 36.1052 22.3201 35.8652 22.3201C35.5466 22.3201 35.2543 22.2525 34.9881 22.1172C34.7219 21.9776 34.4906 21.7943 34.2943 21.5674C34.1023 21.3361 33.9517 21.0787 33.8426 20.7951C33.7379 20.5071 33.6855 20.2169 33.6855 19.9245Z" fill="black" fill-opacity="0.2"/>
</svg>
