<svg width="36" height="36" viewBox="0 0 36 36" fill="none" xmlns="http://www.w3.org/2000/svg">
<rect width="36" height="36" rx="18" fill="white"/>
<path d="M27.3597 11.2341C26.8189 10.6931 26.1768 10.2638 25.47 9.97102C24.7633 9.67819 24.0058 9.52747 23.2408 9.52747C22.4759 9.52747 21.7184 9.67819 21.0116 9.97102C20.3049 10.2638 19.6628 10.6931 19.122 11.2341L17.9997 12.3565L16.8773 11.2341C15.7849 10.1417 14.3033 9.52803 12.7585 9.52803C11.2136 9.52803 9.73205 10.1417 8.63967 11.2341C7.54729 12.3265 6.93359 13.8081 6.93359 15.3529C6.93359 16.8978 7.54729 18.3794 8.63967 19.4718L9.76202 20.5941L17.9997 28.8317L26.2373 20.5941L27.3597 19.4718C27.9007 18.931 28.3299 18.2888 28.6228 17.5821C28.9156 16.8754 29.0663 16.1179 29.0663 15.3529C29.0663 14.5879 28.9156 13.8304 28.6228 13.1237C28.3299 12.417 27.9007 11.7749 27.3597 11.2341Z" fill="#EA4335" stroke="#EA4335" stroke-width="2" stroke-linecap="round" stroke-linejoin="round"/>
</svg>
