<svg width="34" height="34" viewBox="0 0 34 34" fill="none" xmlns="http://www.w3.org/2000/svg">
<rect width="34" height="34" rx="17" fill="white"/>
<path d="M25.84 10.6099C25.3292 10.0989 24.7228 9.69352 24.0554 9.41696C23.3879 9.14039 22.6725 8.99805 21.95 8.99805C21.2275 8.99805 20.5121 9.14039 19.8446 9.41696C19.1772 9.69352 18.5708 10.0989 18.06 10.6099L17 11.6699L15.94 10.6099C14.9083 9.57818 13.509 8.99858 12.05 8.99858C10.591 8.99858 9.19169 9.57818 8.16 10.6099C7.1283 11.6416 6.54871 13.0408 6.54871 14.4999C6.54871 15.9589 7.1283 17.3582 8.16 18.3899L9.22 19.4499L17 27.2299L24.78 19.4499L25.84 18.3899C26.351 17.8791 26.7563 17.2727 27.0329 16.6052C27.3095 15.9378 27.4518 15.2224 27.4518 14.4999C27.4518 13.7774 27.3095 13.062 27.0329 12.3945C26.7563 11.7271 26.351 11.1206 25.84 10.6099Z" stroke="#202020" stroke-width="1.5" stroke-linecap="round" stroke-linejoin="round"/>
</svg>
