<svg width="16" height="17" viewBox="0 0 16 17" fill="none" xmlns="http://www.w3.org/2000/svg">
<path d="M8 10.4596C7.44772 10.4596 7.14905 10.0118 7.14905 9.45955V4.5C7.14905 3.94772 7.44772 3.5 8 3.5C8.55228 3.5 8.84996 3.94772 8.84996 4.5V9.45955C8.84996 10.0118 8.55228 10.4596 8 10.4596ZM7.7113 13.5C7.31846 13.5 7.14905 13.1815 7.14905 12.7887C7.14905 12.3959 7.31846 12.0774 7.7113 12.0774H8.2887C8.68154 12.0774 8.84996 12.3959 8.84996 12.7887C8.84996 13.1815 8.68154 13.5 8.2887 13.5H7.7113Z" fill="#EA4335"/>
<path fill-rule="evenodd" clip-rule="evenodd" d="M8 15.5C11.866 15.5 15 12.366 15 8.5C15 4.63401 11.866 1.5 8 1.5C4.13401 1.5 1 4.63401 1 8.5C1 12.366 4.13401 15.5 8 15.5ZM8 16.5C12.4183 16.5 16 12.9183 16 8.5C16 4.08172 12.4183 0.5 8 0.5C3.58172 0.5 0 4.08172 0 8.5C0 12.9183 3.58172 16.5 8 16.5Z" fill="#EA4335"/>
</svg>
