<svg width="24" height="24" viewBox="0 0 24 24" fill="none" xmlns="http://www.w3.org/2000/svg">
<path d="M6.94118 22.394V15.394M6.94118 5.39404V2.39404M17.7255 22.394V19.394M17.7255 9.39404V2.39404M9.88235 7.39404V13.394C9.88235 14.494 9.39216 15.394 7.92157 15.394H5.96078C4.4902 15.394 4 14.494 4 13.394V7.39404C4 6.29404 4.4902 5.39404 5.96078 5.39404H7.92157C9.39216 5.39404 9.88235 6.29404 9.88235 7.39404ZM20.6667 11.394V17.394C20.6667 18.494 20.1765 19.394 18.7059 19.394H16.7451C15.2745 19.394 14.7843 18.494 14.7843 17.394V11.394C14.7843 10.294 15.2745 9.39404 16.7451 9.39404H18.7059C20.1765 9.39404 20.6667 10.294 20.6667 11.394Z" stroke="#202020" stroke-width="2" stroke-miterlimit="10" stroke-linecap="round" stroke-linejoin="round"/>
</svg>
