<svg width="16" height="16" viewBox="0 0 16 16" fill="none" xmlns="http://www.w3.org/2000/svg">
<g id="icon-question">
<g id="Vector">
<path d="M7.058 10.112C6.77192 10.112 6.5351 9.87902 6.57224 9.59536C6.59081 9.45356 6.61739 9.31777 6.652 9.188C6.736 8.908 6.862 8.656 7.03 8.432C7.20733 8.19867 7.436 7.99333 7.716 7.816C7.884 7.704 8.07533 7.58733 8.29 7.466C8.514 7.34467 8.724 7.20467 8.92 7.046C9.12533 6.878 9.29333 6.682 9.424 6.458C9.55467 6.22467 9.62 5.94933 9.62 5.632C9.62 5.27733 9.536 4.98333 9.368 4.75C9.20933 4.50733 8.99933 4.32533 8.738 4.204C8.47667 4.08267 8.19667 4.022 7.898 4.022C7.59 4.022 7.30067 4.08267 7.03 4.204C6.75933 4.32533 6.52133 4.48867 6.316 4.694C6.25341 4.75659 6.19415 4.82156 6.13822 4.88891C5.94626 5.12007 5.60996 5.2092 5.35931 5.04351C5.15171 4.90628 5.06878 4.63637 5.20023 4.42506C5.3392 4.2017 5.50578 4.00201 5.7 3.826C6.008 3.55533 6.35333 3.35 6.736 3.21C7.11867 3.07 7.51533 3 7.926 3C8.27133 3 8.60733 3.056 8.934 3.168C9.27 3.27067 9.56867 3.434 9.83 3.658C10.1007 3.882 10.3153 4.162 10.474 4.498C10.6327 4.834 10.712 5.23067 10.712 5.688C10.712 6.04267 10.6653 6.346 10.572 6.598C10.4787 6.85 10.348 7.06933 10.18 7.256C10.0213 7.44267 9.83467 7.606 9.62 7.746C9.40533 7.886 9.18133 8.02133 8.948 8.152C8.724 8.27333 8.50467 8.40867 8.29 8.558C8.08467 8.70733 7.912 8.90333 7.772 9.146C7.70212 9.27079 7.65093 9.42093 7.61842 9.59643C7.56631 9.87773 7.34408 10.112 7.058 10.112ZM7.086 13.066C6.79992 13.066 6.568 12.8341 6.568 12.548V11.96C6.568 11.6739 6.79992 11.442 7.086 11.442C7.37208 11.442 7.604 11.6739 7.604 11.96V12.548C7.604 12.8341 7.37208 13.066 7.086 13.066Z" fill="#515151"/>
<path fill-rule="evenodd" clip-rule="evenodd" d="M8 15C11.866 15 15 11.866 15 8C15 4.13401 11.866 1 8 1C4.13401 1 1 4.13401 1 8C1 11.866 4.13401 15 8 15ZM8 16C12.4183 16 16 12.4183 16 8C16 3.58172 12.4183 0 8 0C3.58172 0 0 3.58172 0 8C0 12.4183 3.58172 16 8 16Z" fill="#515151"/>
</g>
</g>
</svg>
