<svg width="133" height="60" viewBox="0 0 133 60" fill="none" xmlns="http://www.w3.org/2000/svg">
<path d="M0 2.56215H4.37977L11.0201 21.5482L10.3843 21.2993L15.3998 8.32197L17.1306 13.4774L10.2077 29.4413L0 2.56215ZM12.4329 2.56215H16.1769L23.453 21.2282L22.7112 21.086L28.9277 2.56215H32.9543L22.9232 29.3702L12.4329 2.56215Z" fill="#202020"/>
<path d="M73.3074 2.41994C74.6496 2.41994 75.8858 2.60956 77.0161 2.98881C78.1699 3.34435 79.1471 3.86582 79.9477 4.5532C80.7718 5.24059 81.4076 6.09389 81.855 7.11312C82.326 8.10864 82.5614 9.27008 82.5614 10.5974C82.5614 11.6167 82.4084 12.624 82.1022 13.6196C81.7961 14.6151 81.3017 15.5158 80.6188 16.3217C79.9359 17.1276 79.0411 17.7794 77.9344 18.2772C76.8277 18.7513 75.4502 18.9883 73.8019 18.9883H70.0579V28.2324H66.2786V2.41994H73.3074ZM73.7312 15.3617C74.6967 15.3617 75.4973 15.2077 76.133 14.8995C76.7924 14.5914 77.2986 14.2121 77.6518 13.7618C78.0286 13.2877 78.2876 12.79 78.4289 12.2685C78.5937 11.7233 78.6761 11.2019 78.6761 10.7041C78.6761 10.2301 78.5937 9.73229 78.4289 9.21082C78.2876 8.68936 78.0286 8.1916 77.6518 7.71754C77.2986 7.24348 76.8159 6.85239 76.2037 6.54425C75.5915 6.23611 74.838 6.08204 73.9432 6.08204H70.0579V15.3617H73.7312ZM78.0757 17.5661L84.716 28.2324H80.3362L73.59 17.6728L78.0757 17.5661Z" fill="#202020"/>
<path d="M89.7682 2.41994H93.5475V24.5703H106.369V28.2324H89.7682V2.41994Z" fill="#202020"/>
<path d="M111.878 28.2324V2.41994H119.013C121.556 2.41994 123.722 2.81104 125.512 3.59323C127.302 4.37543 128.738 5.40651 129.821 6.68646C130.928 7.96642 131.728 9.3886 132.223 10.953C132.741 12.5174 133 14.0936 133 15.6817C133 17.6017 132.659 19.332 131.976 20.8727C131.293 22.4134 130.363 23.7407 129.185 24.8548C128.008 25.9451 126.654 26.7865 125.123 27.3791C123.593 27.948 121.968 28.2324 120.249 28.2324H111.878ZM115.658 24.5703H119.543C120.932 24.5703 122.204 24.3688 123.357 23.9659C124.535 23.5629 125.547 22.9704 126.395 22.1882C127.266 21.406 127.937 20.446 128.408 19.3083C128.879 18.1705 129.115 16.8669 129.115 15.3973C129.115 13.8092 128.844 12.4344 128.302 11.273C127.784 10.0878 127.09 9.11601 126.218 8.35752C125.347 7.57532 124.37 7.00645 123.287 6.65091C122.227 6.27166 121.144 6.08204 120.037 6.08204H115.658V24.5703Z" fill="#202020"/>
<path d="M20.3094 49.6006L13.2934 32.2856H17.9557L22.8525 46.3652L21.7223 46.4363L26.8791 32.2856H31.5061L24.0888 49.6006V58.0981H20.3094V49.6006Z" fill="#202020"/>
<path d="M69.6238 48.8895C69.6238 49.9799 69.8946 50.9635 70.4362 51.8405C70.9778 52.7175 71.696 53.4168 72.5908 53.9382C73.4855 54.4597 74.4863 54.7204 75.593 54.7204C76.7704 54.7204 77.8182 54.4597 78.7366 53.9382C79.6549 53.4168 80.3731 52.7175 80.8911 51.8405C81.4327 50.9635 81.7035 49.9799 81.7035 48.8895V32.2856H85.4122V48.9962C85.4122 50.8687 84.9766 52.5161 84.1053 53.9382C83.2341 55.3367 82.0567 56.427 80.5732 57.2092C79.0898 57.9914 77.4297 58.3825 75.593 58.3825C73.8034 58.3825 72.1669 57.9914 70.6834 57.2092C69.2 56.427 68.0226 55.3367 67.1514 53.9382C66.3037 52.5161 65.8798 50.8687 65.8798 48.9962V32.2856H69.6238V48.8895Z" fill="#202020"/>
<path d="M96.7971 32.2856C98.1393 32.2856 99.3755 32.4752 100.506 32.8545C101.66 33.21 102.637 33.7315 103.437 34.4189C104.262 35.1063 104.897 35.9596 105.345 36.9788C105.816 37.9743 106.051 39.1358 106.051 40.4631C106.051 41.4824 105.898 42.4897 105.592 43.4853C105.286 44.4808 104.791 45.3815 104.108 46.1874C103.426 46.9933 102.531 47.6451 101.424 48.1429C100.317 48.6169 98.9399 48.854 97.2916 48.854H93.5475V58.0981H89.7682V32.2856H96.7971ZM97.2209 45.2274C98.1863 45.2274 98.9869 45.0733 99.6227 44.7652C100.282 44.4571 100.788 44.0778 101.142 43.6275C101.518 43.1534 101.777 42.6556 101.919 42.1342C102.083 41.589 102.166 41.0676 102.166 40.5698C102.166 40.0957 102.083 39.598 101.919 39.0765C101.777 38.555 101.518 38.0573 101.142 37.5832C100.788 37.1092 100.306 36.7181 99.6934 36.4099C99.0811 36.1018 98.3276 35.9477 97.4328 35.9477H93.5475V45.2274H97.2209ZM101.565 47.4318L108.206 58.0981H103.826L97.0796 47.5384L101.565 47.4318Z" fill="#202020"/>
<path d="M127.243 36.9433C126.348 36.4692 125.382 36.0662 124.346 35.7344C123.31 35.4026 122.31 35.2366 121.344 35.2366C120.025 35.2366 118.978 35.5448 118.201 36.1611C117.424 36.7536 117.035 37.5714 117.035 38.6143C117.035 39.3491 117.294 39.9891 117.812 40.5342C118.33 41.0794 119.001 41.5535 119.825 41.9564C120.65 42.3594 121.521 42.7386 122.439 43.0942C123.216 43.3786 123.981 43.7223 124.735 44.1252C125.512 44.5045 126.207 44.9785 126.819 45.5474C127.455 46.1163 127.949 46.8274 128.302 47.6807C128.679 48.5103 128.867 49.5295 128.867 50.7384C128.867 52.1131 128.526 53.3575 127.843 54.4716C127.184 55.5856 126.218 56.4745 124.947 57.1381C123.699 57.7781 122.18 58.0981 120.39 58.0981C119.307 58.0981 118.248 57.9796 117.212 57.7426C116.199 57.4818 115.234 57.15 114.315 56.747C113.421 56.3204 112.608 55.8582 111.878 55.3604L113.574 52.4094C114.139 52.8124 114.786 53.2035 115.516 53.5827C116.246 53.9382 117 54.2227 117.777 54.436C118.577 54.6493 119.331 54.756 120.037 54.756C120.814 54.756 121.58 54.6256 122.333 54.3649C123.087 54.0805 123.711 53.6538 124.205 53.0849C124.7 52.4924 124.947 51.722 124.947 50.7739C124.947 49.968 124.723 49.2925 124.276 48.7473C123.852 48.1784 123.275 47.6925 122.545 47.2896C121.839 46.8866 121.073 46.5311 120.249 46.2229C119.449 45.9148 118.636 45.5711 117.812 45.1919C116.988 44.8126 116.223 44.3623 115.516 43.8408C114.81 43.2956 114.233 42.632 113.786 41.8498C113.362 41.0439 113.15 40.0602 113.15 38.8987C113.15 37.524 113.468 36.327 114.103 35.3078C114.763 34.2648 115.669 33.4471 116.823 32.8545C117.977 32.2619 119.307 31.9301 120.814 31.859C122.533 31.859 124.029 32.0723 125.3 32.499C126.572 32.9256 127.702 33.4352 128.691 34.0278L127.243 36.9433Z" fill="#202020"/>
<path d="M0.0918339 47.8158H1.46228V58.0981H0.0918339V47.8158Z" fill="#202020"/>
<path d="M9.68053 49.6504C9.33204 49.4702 8.95057 49.3138 8.53614 49.1811C8.12171 49.0483 7.7167 48.982 7.32111 48.982C6.77481 48.982 6.33684 49.11 6.00718 49.3659C5.68693 49.6219 5.52681 49.9633 5.52681 50.3899C5.52681 50.7123 5.63042 50.9872 5.83764 51.2148C6.04485 51.4328 6.318 51.6225 6.65708 51.7836C6.99616 51.9448 7.34936 52.0965 7.7167 52.2387C8.03694 52.362 8.35247 52.4995 8.6633 52.6512C8.97412 52.8029 9.25198 52.9925 9.49687 53.22C9.75117 53.4476 9.94897 53.7273 10.0903 54.0591C10.241 54.391 10.3163 54.8034 10.3163 55.2964C10.3163 55.8368 10.1797 56.3299 9.90659 56.7755C9.64286 57.2211 9.26139 57.5719 8.76219 57.8279C8.26299 58.0839 7.66961 58.2119 6.98203 58.2119C6.52992 58.2119 6.09665 58.1597 5.68223 58.0554C5.27721 57.9511 4.90046 57.8184 4.55196 57.6572C4.20346 57.4866 3.89264 57.3112 3.61949 57.131L4.22701 56.0502C4.45306 56.2113 4.71208 56.3678 5.00407 56.5195C5.29605 56.6617 5.60216 56.7802 5.92241 56.875C6.24265 56.9604 6.55347 57.003 6.85487 57.003C7.17512 57.003 7.49065 56.9461 7.80147 56.8324C8.12171 56.7091 8.38544 56.5242 8.59266 56.2777C8.79987 56.0312 8.90348 55.7041 8.90348 55.2964C8.90348 54.9456 8.80929 54.6564 8.62091 54.4289C8.44195 54.1919 8.20177 53.9928 7.90037 53.8316C7.59896 53.6609 7.27872 53.5092 6.93964 53.3765C6.6194 53.2532 6.29445 53.1205 5.96479 52.9783C5.63513 52.8266 5.32902 52.6464 5.04645 52.4378C4.76389 52.2198 4.53783 51.9543 4.36829 51.6414C4.19875 51.3285 4.11398 50.9493 4.11398 50.5037C4.11398 49.9633 4.24114 49.4939 4.49545 49.0957C4.75918 48.688 5.11709 48.3704 5.5692 48.1429C6.0213 47.9058 6.53934 47.7779 7.12331 47.7589C7.78263 47.7589 8.36189 47.8395 8.86109 48.0007C9.36971 48.1618 9.81711 48.3609 10.2033 48.598L9.68053 49.6504Z" fill="#202020"/>
<path d="M38.3097 23.1678C38.2909 23.1494 38.2722 23.131 38.2535 23.1126C37.0526 21.9037 36.1107 20.5053 35.4278 18.9172C34.7685 17.3054 34.4388 15.5751 34.4388 13.7262L34.4053 46.3011C34.4107 44.5395 34.7403 42.8712 35.3942 41.2962C36.0771 39.7081 37.019 38.2977 38.2199 37.0652C38.2481 37.0362 38.2764 37.0074 38.3048 36.9788L38.3097 23.1678Z" fill="#202020"/>
<path d="M60.6468 13.7708C60.6412 15.5791 60.2998 17.2709 59.6225 18.8461C58.9397 20.4342 57.986 21.8326 56.7615 23.0415C56.7568 23.0462 56.7521 23.051 56.7473 23.0558L56.7421 37.0794C57.9597 38.3086 58.9087 39.7142 59.5889 41.2962C60.2718 42.8843 60.6132 44.5672 60.6132 46.3449L60.6468 13.7708Z" fill="#202020"/>
<path fill-rule="evenodd" clip-rule="evenodd" d="M35.4278 8.67751C34.7685 10.2656 34.4388 11.9485 34.4388 13.7262C34.4388 15.5751 34.7685 17.3054 35.4278 18.9172C36.1107 20.5053 37.0526 21.9037 38.2535 23.1126L38.3097 23.1678L38.3241 13.7262C38.3241 12.4226 38.5478 11.19 38.9952 10.0286C39.4662 8.86713 40.1255 7.84791 40.9732 6.9709C41.8209 6.09389 42.7981 5.40651 43.9048 4.90874C45.0115 4.41098 46.2242 4.1621 47.5428 4.1621C48.8144 4.1621 50.0035 4.41098 51.1102 4.90874C52.2405 5.40651 53.2177 6.09389 54.0418 6.9709C54.8895 7.84791 55.5489 8.86713 56.0198 10.0286C56.5143 11.1663 56.7615 12.3989 56.7615 13.7262C56.7615 13.738 56.7615 13.7498 56.7615 13.7616L56.7473 23.0558L56.7615 23.0415C57.986 21.8326 58.9397 20.4342 59.6225 18.8461C60.2998 17.2709 60.6412 15.5791 60.6468 13.7708L60.6468 13.7262C60.6468 11.9485 60.3054 10.2656 59.6225 8.67751C58.9397 7.08941 57.986 5.67909 56.7615 4.44654C55.5371 3.21399 54.136 2.25402 52.5584 1.56663C50.9807 0.855544 49.2971 0.5 47.5075 0.5C45.6944 0.5 43.999 0.855544 42.4213 1.56663C40.8437 2.25402 39.4544 3.21399 38.2535 4.44654C37.0526 5.67909 36.1107 7.08941 35.4278 8.67751Z" fill="#202020"/>
<path fill-rule="evenodd" clip-rule="evenodd" d="M34.4053 46.3011L34.4052 46.3449C34.4052 48.1937 34.7349 49.924 35.3942 51.5358C36.0771 53.1239 37.019 54.5224 38.2199 55.7312C39.4208 56.9164 40.8101 57.8408 42.3877 58.5045C43.9654 59.1682 45.6608 59.5 47.4739 59.5C49.2635 59.5 50.9471 59.1682 52.5248 58.5045C54.126 57.8171 55.527 56.869 56.7279 55.6601C57.9524 54.4513 58.9061 53.0528 59.5889 51.4647C60.2718 49.8766 60.6132 48.17 60.6132 46.3449C60.6132 44.5672 60.2718 42.8843 59.5889 41.2962C58.9087 39.7142 57.9597 38.3086 56.7421 37.0794L56.7279 46.3449C56.7279 47.6723 56.4925 48.9166 56.0215 50.0781C55.5506 51.2158 54.8913 52.2232 54.0436 53.1002C53.2194 53.9535 52.254 54.6291 51.1473 55.1268C50.0405 55.6009 48.8514 55.8379 47.5799 55.8379C46.2848 55.8379 45.0721 55.6009 43.9418 55.1268C42.8351 54.6291 41.8579 53.9535 41.0102 53.1002C40.1625 52.2232 39.4914 51.2158 38.9969 50.0781C38.526 48.9166 38.2905 47.6723 38.2905 46.3449C38.2905 46.3331 38.2905 46.3213 38.2906 46.3095L38.3048 36.9788C38.2764 37.0074 38.2481 37.0362 38.2199 37.0652C37.019 38.2977 36.0771 39.7081 35.3942 41.2962C34.7403 42.8712 34.4107 44.5395 34.4053 46.3011Z" fill="#202020"/>
</svg>
