<svg width="26" height="24" viewBox="0 0 26 24" fill="none" xmlns="http://www.w3.org/2000/svg">
<g id="icon-heart">
<path id="vector" d="M23.1494 3.85062C22.5629 3.26392 21.8667 2.79851 21.1003 2.48097C20.334 2.16344 19.5126 2 18.6831 2C17.8535 2 17.0321 2.16344 16.2658 2.48097C15.4994 2.79851 14.8032 3.26392 14.2167 3.85062L12.9997 5.06767L11.7826 3.85062C10.5981 2.66608 8.99152 2.00061 7.31633 2.00061C5.64114 2.00061 4.03455 2.66608 2.85001 3.85062C1.66547 5.03517 1 6.64175 1 8.31694C1 9.99214 1.66547 11.5987 2.85001 12.7833L4.06705 14.0003L12.9997 22.9329L21.9323 14.0003L23.1494 12.7833C23.7361 12.1968 24.2015 11.5006 24.519 10.7342C24.8366 9.96787 25 9.14647 25 8.31694C25 7.48742 24.8366 6.66602 24.519 5.89967C24.2015 5.13333 23.7361 4.43705 23.1494 3.85062Z" stroke="#202020" stroke-width="2" stroke-linecap="round" stroke-linejoin="round"/>
</g>
</svg>
