<svg width="40" height="40" viewBox="0 0 40 40" fill="none" xmlns="http://www.w3.org/2000/svg">
<path d="M15 30C15.5523 30 16 29.5523 16 29C16 28.4477 15.5523 28 15 28C14.4477 28 14 28.4477 14 29C14 29.5523 14.4477 30 15 30Z" stroke="#202020" stroke-width="2" stroke-linecap="round" stroke-linejoin="round"/>
<path d="M26 30C26.5523 30 27 29.5523 27 29C27 28.4477 26.5523 28 26 28C25.4477 28 25 28.4477 25 29C25 29.5523 25.4477 30 26 30Z" stroke="#202020" stroke-width="2" stroke-linecap="round" stroke-linejoin="round"/>
<path d="M7 9H11L13.68 22.39C13.7714 22.8504 14.0219 23.264 14.3875 23.5583C14.7532 23.8526 15.2107 24.009 15.68 24H25.4C25.8693 24.009 26.3268 23.8526 26.6925 23.5583C27.0581 23.264 27.3086 22.8504 27.4 22.39L29 14H12" stroke="#202020" stroke-width="2" stroke-linecap="round" stroke-linejoin="round"/>
</svg>
