<svg width="40" height="40" viewBox="0 0 40 40" fill="none" xmlns="http://www.w3.org/2000/svg">
<path d="M7 9H11L13.68 22.39C13.7714 22.8504 14.0219 23.264 14.3875 23.5583C14.7532 23.8526 15.2107 24.009 15.68 24H25.4C25.8693 24.009 26.3268 23.8526 26.6925 23.5583C27.0581 23.264 27.3086 22.8504 27.4 22.39L29 14H12M16 29C16 29.5523 15.5523 30 15 30C14.4477 30 14 29.5523 14 29C14 28.4477 14.4477 28 15 28C15.5523 28 16 28.4477 16 29ZM27 29C27 29.5523 26.5523 30 26 30C25.4477 30 25 29.5523 25 29C25 28.4477 25.4477 28 26 28C26.5523 28 27 28.4477 27 29Z" stroke="white" stroke-width="2" stroke-linecap="round" stroke-linejoin="round"/>
</svg>
