<svg width="133" height="100" viewBox="0 0 133 100" fill="none" xmlns="http://www.w3.org/2000/svg">
<path d="M0 22.0622H4.37977L11.0201 41.0482L10.3843 40.7993L15.3998 27.822L17.1306 32.9774L10.2077 48.9413L0 22.0622ZM12.4329 22.0622H16.1769L23.453 40.7282L22.7112 40.586L28.9277 22.0622H32.9543L22.9232 48.8702L12.4329 22.0622Z" fill="#202020"/>
<path d="M73.3074 21.9199C74.6496 21.9199 75.8858 22.1096 77.0161 22.4888C78.1699 22.8444 79.1471 23.3658 79.9477 24.0532C80.7718 24.7406 81.4076 25.5939 81.855 26.6131C82.326 27.6086 82.5614 28.7701 82.5614 30.0974C82.5614 31.1167 82.4084 32.124 82.1022 33.1196C81.7961 34.1151 81.3017 35.0158 80.6188 35.8217C79.9359 36.6276 79.0411 37.2794 77.9344 37.7772C76.8277 38.2513 75.4502 38.4883 73.8019 38.4883H70.0579V47.7324H66.2786V21.9199H73.3074ZM73.7312 34.8617C74.6967 34.8617 75.4973 34.7077 76.133 34.3995C76.7924 34.0914 77.2986 33.7121 77.6518 33.2618C78.0286 32.7877 78.2876 32.29 78.4289 31.7685C78.5937 31.2233 78.6761 30.7019 78.6761 30.2041C78.6761 29.7301 78.5937 29.2323 78.4289 28.7108C78.2876 28.1894 78.0286 27.6916 77.6518 27.2175C77.2986 26.7435 76.8159 26.3524 76.2037 26.0442C75.5915 25.7361 74.838 25.582 73.9432 25.582H70.0579V34.8617H73.7312ZM78.0757 37.0661L84.716 47.7324H80.3362L73.59 37.1728L78.0757 37.0661Z" fill="#202020"/>
<path d="M89.7682 21.9199H93.5475V44.0703H106.369V47.7324H89.7682V21.9199Z" fill="#202020"/>
<path d="M111.878 47.7324V21.9199H119.013C121.556 21.9199 123.722 22.311 125.512 23.0932C127.302 23.8754 128.738 24.9065 129.821 26.1865C130.928 27.4664 131.728 28.8886 132.223 30.453C132.741 32.0174 133 33.5936 133 35.1817C133 37.1017 132.659 38.832 131.976 40.3727C131.293 41.9134 130.363 43.2407 129.185 44.3548C128.008 45.4451 126.654 46.2865 125.123 46.8791C123.593 47.448 121.968 47.7324 120.249 47.7324H111.878ZM115.658 44.0703H119.543C120.932 44.0703 122.204 43.8688 123.357 43.4659C124.535 43.0629 125.547 42.4704 126.395 41.6882C127.266 40.906 127.937 39.946 128.408 38.8083C128.879 37.6705 129.115 36.3669 129.115 34.8973C129.115 33.3092 128.844 31.9344 128.302 30.773C127.784 29.5878 127.09 28.616 126.218 27.8575C125.347 27.0753 124.37 26.5065 123.287 26.1509C122.227 25.7717 121.144 25.582 120.037 25.582H115.658V44.0703Z" fill="#202020"/>
<path d="M20.3094 69.1006L13.2934 51.7856H17.9557L22.8525 65.8652L21.7223 65.9363L26.8791 51.7856H31.5061L24.0888 69.1006V77.5981H20.3094V69.1006Z" fill="#202020"/>
<path d="M69.6238 68.3895C69.6238 69.4799 69.8946 70.4635 70.4362 71.3405C70.9778 72.2175 71.696 72.9168 72.5908 73.4382C73.4855 73.9597 74.4863 74.2204 75.593 74.2204C76.7704 74.2204 77.8182 73.9597 78.7366 73.4382C79.6549 72.9168 80.3731 72.2175 80.8911 71.3405C81.4327 70.4635 81.7035 69.4799 81.7035 68.3895V51.7856H85.4122V68.4962C85.4122 70.3687 84.9766 72.0161 84.1053 73.4382C83.2341 74.8367 82.0567 75.927 80.5732 76.7092C79.0898 77.4914 77.4297 77.8825 75.593 77.8825C73.8034 77.8825 72.1669 77.4914 70.6834 76.7092C69.2 75.927 68.0226 74.8367 67.1514 73.4382C66.3037 72.0161 65.8798 70.3687 65.8798 68.4962V51.7856H69.6238V68.3895Z" fill="#202020"/>
<path d="M96.7971 51.7856C98.1393 51.7856 99.3755 51.9752 100.506 52.3545C101.66 52.71 102.637 53.2315 103.437 53.9189C104.262 54.6063 104.897 55.4596 105.345 56.4788C105.816 57.4743 106.051 58.6358 106.051 59.9631C106.051 60.9824 105.898 61.9897 105.592 62.9853C105.286 63.9808 104.791 64.8815 104.108 65.6874C103.426 66.4933 102.531 67.1451 101.424 67.6429C100.317 68.1169 98.9399 68.354 97.2916 68.354H93.5475V77.5981H89.7682V51.7856H96.7971ZM97.2209 64.7274C98.1863 64.7274 98.9869 64.5733 99.6227 64.2652C100.282 63.9571 100.788 63.5778 101.142 63.1275C101.518 62.6534 101.777 62.1556 101.919 61.6342C102.083 61.089 102.166 60.5676 102.166 60.0698C102.166 59.5957 102.083 59.098 101.919 58.5765C101.777 58.055 101.518 57.5573 101.142 57.0832C100.788 56.6092 100.306 56.2181 99.6934 55.9099C99.0811 55.6018 98.3276 55.4477 97.4328 55.4477H93.5475V64.7274H97.2209ZM101.565 66.9318L108.206 77.5981H103.826L97.0796 67.0384L101.565 66.9318Z" fill="#202020"/>
<path d="M127.243 56.4433C126.348 55.9692 125.382 55.5662 124.346 55.2344C123.31 54.9026 122.31 54.7366 121.344 54.7366C120.025 54.7366 118.978 55.0448 118.201 55.6611C117.424 56.2536 117.035 57.0714 117.035 58.1143C117.035 58.8491 117.294 59.4891 117.812 60.0342C118.33 60.5794 119.001 61.0535 119.825 61.4564C120.65 61.8594 121.521 62.2386 122.439 62.5942C123.216 62.8786 123.981 63.2223 124.735 63.6252C125.512 64.0045 126.207 64.4785 126.819 65.0474C127.455 65.6163 127.949 66.3274 128.302 67.1807C128.679 68.0103 128.867 69.0295 128.867 70.2384C128.867 71.6131 128.526 72.8575 127.843 73.9716C127.184 75.0856 126.218 75.9745 124.947 76.6381C123.699 77.2781 122.18 77.5981 120.39 77.5981C119.307 77.5981 118.248 77.4796 117.212 77.2426C116.199 76.9818 115.234 76.65 114.315 76.247C113.421 75.8204 112.608 75.3582 111.878 74.8604L113.574 71.9094C114.139 72.3124 114.786 72.7035 115.516 73.0827C116.246 73.4382 117 73.7227 117.777 73.936C118.577 74.1493 119.331 74.256 120.037 74.256C120.814 74.256 121.58 74.1256 122.333 73.8649C123.087 73.5805 123.711 73.1538 124.205 72.5849C124.7 71.9924 124.947 71.222 124.947 70.2739C124.947 69.468 124.723 68.7925 124.276 68.2473C123.852 67.6784 123.275 67.1925 122.545 66.7896C121.839 66.3866 121.073 66.0311 120.249 65.7229C119.449 65.4148 118.636 65.0711 117.812 64.6919C116.988 64.3126 116.223 63.8623 115.516 63.3408C114.81 62.7956 114.233 62.132 113.786 61.3498C113.362 60.5439 113.15 59.5602 113.15 58.3987C113.15 57.024 113.468 55.827 114.103 54.8078C114.763 53.7648 115.669 52.9471 116.823 52.3545C117.977 51.7619 119.307 51.4301 120.814 51.359C122.533 51.359 124.029 51.5723 125.3 51.999C126.572 52.4256 127.702 52.9352 128.691 53.5278L127.243 56.4433Z" fill="#202020"/>
<path d="M0.0918339 67.3158H1.46228V77.5981H0.0918339V67.3158Z" fill="#202020"/>
<path d="M9.68053 69.1504C9.33204 68.9702 8.95057 68.8138 8.53614 68.6811C8.12171 68.5483 7.7167 68.482 7.32111 68.482C6.77481 68.482 6.33684 68.61 6.00718 68.8659C5.68693 69.1219 5.52681 69.4633 5.52681 69.8899C5.52681 70.2123 5.63042 70.4872 5.83764 70.7148C6.04485 70.9328 6.318 71.1225 6.65708 71.2836C6.99616 71.4448 7.34936 71.5965 7.7167 71.7387C8.03694 71.862 8.35247 71.9995 8.6633 72.1512C8.97412 72.3029 9.25198 72.4925 9.49687 72.72C9.75117 72.9476 9.94897 73.2273 10.0903 73.5591C10.241 73.891 10.3163 74.3034 10.3163 74.7964C10.3163 75.3368 10.1797 75.8299 9.90659 76.2755C9.64286 76.7211 9.26139 77.0719 8.76219 77.3279C8.26299 77.5839 7.66961 77.7119 6.98203 77.7119C6.52992 77.7119 6.09665 77.6597 5.68223 77.5554C5.27721 77.4511 4.90046 77.3184 4.55196 77.1572C4.20346 76.9866 3.89264 76.8112 3.61949 76.631L4.22701 75.5502C4.45306 75.7113 4.71208 75.8678 5.00407 76.0195C5.29605 76.1617 5.60216 76.2802 5.92241 76.375C6.24265 76.4604 6.55347 76.503 6.85487 76.503C7.17512 76.503 7.49065 76.4461 7.80147 76.3324C8.12171 76.2091 8.38544 76.0242 8.59266 75.7777C8.79987 75.5312 8.90348 75.2041 8.90348 74.7964C8.90348 74.4456 8.80929 74.1564 8.62091 73.9289C8.44195 73.6919 8.20177 73.4928 7.90037 73.3316C7.59896 73.1609 7.27872 73.0092 6.93964 72.8765C6.6194 72.7532 6.29445 72.6205 5.96479 72.4783C5.63513 72.3266 5.32902 72.1464 5.04645 71.9378C4.76389 71.7198 4.53783 71.4543 4.36829 71.1414C4.19875 70.8285 4.11398 70.4493 4.11398 70.0037C4.11398 69.4633 4.24114 68.9939 4.49545 68.5957C4.75918 68.188 5.11709 67.8704 5.5692 67.6429C6.0213 67.4058 6.53934 67.2779 7.12331 67.2589C7.78263 67.2589 8.36189 67.3395 8.86109 67.5007C9.36971 67.6618 9.81711 67.8609 10.2033 68.098L9.68053 69.1504Z" fill="#202020"/>
<path d="M38.3097 42.6678C38.2909 42.6494 38.2722 42.631 38.2535 42.6126C37.0526 41.4037 36.1107 40.0053 35.4278 38.4172C34.7685 36.8054 34.4388 35.0751 34.4388 33.2262L34.4053 65.8011C34.4107 64.0395 34.7403 62.3712 35.3942 60.7962C36.0771 59.2081 37.019 57.7977 38.2199 56.5652C38.2481 56.5362 38.2764 56.5074 38.3048 56.4788L38.3097 42.6678Z" fill="#202020"/>
<path d="M60.6468 33.2708C60.6412 35.0791 60.2998 36.7709 59.6225 38.3461C58.9397 39.9342 57.986 41.3326 56.7615 42.5415C56.7568 42.5462 56.7521 42.551 56.7473 42.5558L56.7421 56.5794C57.9597 57.8086 58.9087 59.2142 59.5889 60.7962C60.2718 62.3843 60.6132 64.0672 60.6132 65.8449L60.6468 33.2708Z" fill="#202020"/>
<path fill-rule="evenodd" clip-rule="evenodd" d="M35.4278 28.1775C34.7685 29.7656 34.4388 31.4485 34.4388 33.2262C34.4388 35.0751 34.7685 36.8054 35.4278 38.4172C36.1107 40.0053 37.0526 41.4037 38.2535 42.6126L38.3097 42.6678L38.3241 33.2262C38.3241 31.9226 38.5478 30.69 38.9952 29.5286C39.4662 28.3671 40.1255 27.3479 40.9732 26.4709C41.8209 25.5939 42.7981 24.9065 43.9048 24.4087C45.0115 23.911 46.2242 23.6621 47.5428 23.6621C48.8144 23.6621 50.0035 23.911 51.1102 24.4087C52.2405 24.9065 53.2177 25.5939 54.0418 26.4709C54.8895 27.3479 55.5489 28.3671 56.0198 29.5286C56.5143 30.6663 56.7615 31.8989 56.7615 33.2262C56.7615 33.238 56.7615 33.2498 56.7615 33.2616L56.7473 42.5558L56.7615 42.5415C57.986 41.3326 58.9397 39.9342 59.6225 38.3461C60.2998 36.7709 60.6412 35.0791 60.6468 33.2708L60.6468 33.2262C60.6468 31.4485 60.3054 29.7656 59.6225 28.1775C58.9397 26.5894 57.986 25.1791 56.7615 23.9465C55.5371 22.714 54.136 21.754 52.5584 21.0666C50.9807 20.3555 49.2971 20 47.5075 20C45.6944 20 43.999 20.3555 42.4213 21.0666C40.8437 21.754 39.4544 22.714 38.2535 23.9465C37.0526 25.1791 36.1107 26.5894 35.4278 28.1775Z" fill="#202020"/>
<path fill-rule="evenodd" clip-rule="evenodd" d="M34.4053 65.8011L34.4052 65.8449C34.4052 67.6937 34.7349 69.424 35.3942 71.0358C36.0771 72.6239 37.019 74.0224 38.2199 75.2312C39.4208 76.4164 40.8101 77.3408 42.3877 78.0045C43.9654 78.6682 45.6608 79 47.4739 79C49.2635 79 50.9471 78.6682 52.5248 78.0045C54.126 77.3171 55.527 76.369 56.7279 75.1601C57.9524 73.9513 58.9061 72.5528 59.5889 70.9647C60.2718 69.3766 60.6132 67.67 60.6132 65.8449C60.6132 64.0672 60.2718 62.3843 59.5889 60.7962C58.9087 59.2142 57.9597 57.8086 56.7421 56.5794L56.7279 65.8449C56.7279 67.1723 56.4925 68.4166 56.0215 69.5781C55.5506 70.7158 54.8913 71.7232 54.0436 72.6002C53.2194 73.4535 52.254 74.1291 51.1473 74.6268C50.0405 75.1009 48.8514 75.3379 47.5799 75.3379C46.2848 75.3379 45.0721 75.1009 43.9418 74.6268C42.8351 74.1291 41.8579 73.4535 41.0102 72.6002C40.1625 71.7232 39.4914 70.7158 38.9969 69.5781C38.526 68.4166 38.2905 67.1723 38.2905 65.8449C38.2905 65.8331 38.2905 65.8213 38.2906 65.8095L38.3048 56.4788C38.2764 56.5074 38.2481 56.5362 38.2199 56.5652C37.019 57.7977 36.0771 59.2081 35.3942 60.7962C34.7403 62.3712 34.4107 64.0395 34.4053 65.8011Z" fill="#202020"/>
</svg>
