<svg width="50" height="50" viewBox="0 0 50 50" fill="none" xmlns="http://www.w3.org/2000/svg">
<rect x="0.25" y="0.25" width="49.5" height="49.5" rx="24.75" fill="#202020"/>
<rect x="0.25" y="0.25" width="49.5" height="49.5" rx="24.75" stroke="#2E3240" stroke-width="0.5"/>
<path d="M33.6471 37.4658C31.969 39.0925 30.1369 38.8356 28.3732 38.0651C26.5067 37.2774 24.7944 37.2431 22.8252 38.0651C20.3595 39.1267 19.0581 38.8185 17.5855 37.4658C9.22932 28.8527 10.4622 15.7363 19.9485 15.2568C22.2601 15.3767 23.8697 16.524 25.2225 16.6267C27.243 16.2157 29.178 15.0342 31.3355 15.1884C33.9211 15.3938 35.8732 16.4212 37.1574 18.2705C31.8149 21.4726 33.0821 28.5103 37.9793 30.4795C37.0033 33.0479 35.7362 35.5993 33.63 37.4829L33.6471 37.4658ZM25.0512 15.1541C24.7944 11.3356 27.8937 8.18493 31.4554 7.87671C31.9519 12.2945 27.4485 15.5822 25.0512 15.1541Z" fill="white"/>
</svg>
