<svg width="50" height="50" viewBox="0 0 50 50" fill="none" xmlns="http://www.w3.org/2000/svg">
<g clip-path="url(#clip0_542_3713)">
<path fill-rule="evenodd" clip-rule="evenodd" d="M17.1777 1.36825C10.9651 3.45125 5.67141 8.00692 2.72283 13.7721C1.6943 15.7611 0.953709 17.871 0.501131 20.0614C-0.623427 25.4907 0.158287 31.2828 2.70912 36.2282C4.36857 39.4535 6.75484 42.3294 9.63488 44.5737C12.364 46.6969 15.532 48.2828 18.9057 49.1563C23.1571 50.2717 27.6828 50.2448 31.9617 49.2906C35.8291 48.4171 39.4909 46.6029 42.412 43.9689C45.4977 41.1871 47.7057 37.5318 48.8714 33.5942C50.1466 29.3073 50.3113 24.7247 49.5163 20.3168C41.5206 20.3168 33.5114 20.3168 25.516 20.3168C25.516 23.569 25.516 26.8211 25.516 30.0733C30.1514 30.0733 34.7869 30.0733 39.4223 30.0733C38.8874 33.1911 36.9949 36.0401 34.3206 37.8005C32.6337 38.916 30.7 39.6282 28.6977 39.9776C26.6954 40.3136 24.6109 40.3539 22.6086 39.9642C20.5652 39.561 18.6314 38.7278 16.9308 37.5587C14.2154 35.6906 12.1446 32.9626 11.0886 29.8851C10.0051 26.7539 9.99143 23.2733 11.0886 20.1555C11.8566 17.9516 13.1183 15.9223 14.7914 14.2559C16.8486 12.1864 19.5229 10.7081 22.4166 10.1034C24.8851 9.59273 27.4908 9.68678 29.9046 10.399C31.9617 11.0038 33.8543 12.1192 35.404 13.5706C36.9674 12.0386 38.5309 10.5065 40.0943 8.97454C40.9171 8.15479 41.7812 7.36185 42.5766 6.51522C40.204 4.36505 37.4063 2.63143 34.3617 1.52947C28.876 -0.459423 22.7045 -0.499774 17.1777 1.36825Z" fill="white"/>
<path fill-rule="evenodd" clip-rule="evenodd" d="M17.1777 1.36825C22.6908 -0.499774 28.8759 -0.459372 34.3616 1.51611C37.4061 2.61807 40.1901 4.33822 42.5764 6.50186C41.781 7.3485 40.917 8.14137 40.0941 8.96112C38.5307 10.4932 36.9672 12.0252 35.4038 13.5571C33.8541 12.1058 31.9615 11.0038 29.9044 10.3857C27.4907 9.67342 24.885 9.5659 22.4164 10.09C19.5364 10.6947 16.8621 12.173 14.7912 14.2426C13.1181 15.8955 11.8564 17.9382 11.0884 20.1421C8.30442 18.0188 5.52041 15.909 2.72269 13.7857C5.67127 8.00697 10.9651 3.45125 17.1777 1.36825Z" fill="#EA4335"/>
<path fill-rule="evenodd" clip-rule="evenodd" d="M0.514953 20.0481C0.967531 17.871 1.70812 15.7477 2.73672 13.7588C5.52066 15.8821 8.30467 17.9919 11.1024 20.1152C10.0052 23.2465 10.0052 26.7271 11.1024 29.8449C8.31838 31.9682 5.53443 34.0915 2.75042 36.2014C0.172109 31.2693 -0.609605 25.4773 0.514953 20.0481Z" fill="#FBBC05"/>
<path fill-rule="evenodd" clip-rule="evenodd" d="M25.516 20.3035C33.5114 20.3035 41.5206 20.3035 49.5163 20.3035C50.3113 24.698 50.1332 29.2806 48.8714 33.5809C47.7057 37.5185 45.4977 41.1738 42.412 43.9557C39.7103 41.8995 37.0086 39.8434 34.3069 37.7873C36.9811 36.0268 38.8737 33.1778 39.4086 30.06C34.7732 30.06 30.1377 30.06 25.5023 30.06C25.516 26.8079 25.516 23.5557 25.516 20.3035Z" fill="#4285F4"/>
<path fill-rule="evenodd" clip-rule="evenodd" d="M2.72267 36.2148C5.50668 34.1049 8.29069 31.9816 11.0746 29.8583C12.1444 32.9358 14.2015 35.6638 16.917 37.5318C18.6175 38.7009 20.5649 39.5341 22.5946 39.9373C24.5969 40.3405 26.6678 40.2867 28.6838 39.9508C30.6861 39.6013 32.6198 38.8891 34.3066 37.7736C37.0084 39.8298 39.7101 41.8859 42.4118 43.942C39.4907 46.5894 35.8289 48.3902 31.9615 49.2637C27.6827 50.2178 23.157 50.2448 18.9055 49.1294C15.5318 48.2559 12.3638 46.6835 9.63465 44.5468C6.76839 42.316 4.38212 39.4401 2.72267 36.2148Z" fill="#34A853"/>
</g>
<defs>
<clipPath id="clip0_542_3713">
<rect width="50" height="50" rx="25" fill="white"/>
</clipPath>
</defs>
</svg>
