<svg width="40" height="40" viewBox="0 0 40 40" fill="none" xmlns="http://www.w3.org/2000/svg">
<path d="M16.6668 25.0002L25.3168 20.0002L16.6668 15.0002V25.0002ZM35.9335 11.9502C36.1502 12.7335 36.3002 13.7835 36.4002 15.1168C36.5168 16.4502 36.5668 17.6002 36.5668 18.6002L36.6668 20.0002C36.6668 23.6502 36.4002 26.3335 35.9335 28.0502C35.5168 29.5502 34.5502 30.5168 33.0502 30.9335C32.2668 31.1502 30.8335 31.3002 28.6335 31.4002C26.4668 31.5168 24.4835 31.5668 22.6502 31.5668L20.0002 31.6668C13.0168 31.6668 8.66683 31.4002 6.95016 30.9335C5.45016 30.5168 4.4835 29.5502 4.06683 28.0502C3.85016 27.2668 3.70016 26.2168 3.60016 24.8835C3.4835 23.5502 3.4335 22.4002 3.4335 21.4002L3.3335 20.0002C3.3335 16.3502 3.60016 13.6668 4.06683 11.9502C4.4835 10.4502 5.45016 9.4835 6.95016 9.06683C7.7335 8.85016 9.16683 8.70016 11.3668 8.60016C13.5335 8.4835 15.5168 8.4335 17.3502 8.4335L20.0002 8.3335C26.9835 8.3335 31.3335 8.60016 33.0502 9.06683C34.5502 9.4835 35.5168 10.4502 35.9335 11.9502Z" fill="white" fill-opacity="0.3"/>
</svg>
