<svg width="40" height="40" viewBox="0 0 40 40" fill="none" xmlns="http://www.w3.org/2000/svg">
<path d="M17 30C17.5523 30 18 29.5523 18 29C18 28.4477 17.5523 28 17 28C16.4477 28 16 28.4477 16 29C16 29.5523 16.4477 30 17 30Z" stroke="white" stroke-width="2" stroke-linecap="round" stroke-linejoin="round"/>
<path d="M28 30C28.5523 30 29 29.5523 29 29C29 28.4477 28.5523 28 28 28C27.4477 28 27 28.4477 27 29C27 29.5523 27.4477 30 28 30Z" stroke="white" stroke-width="2" stroke-linecap="round" stroke-linejoin="round"/>
<path d="M9 9H13L15.68 22.39C15.7714 22.8504 16.0219 23.264 16.3875 23.5583C16.7532 23.8526 17.2107 24.009 17.68 24H27.4C27.8693 24.009 28.3268 23.8526 28.6925 23.5583C29.0581 23.264 29.3086 22.8504 29.4 22.39L31 14H14" stroke="white" stroke-width="2" stroke-linecap="round" stroke-linejoin="round"/>
</svg>
