<svg width="332" height="147" viewBox="0 0 332 147" fill="none" xmlns="http://www.w3.org/2000/svg">
<g clip-path="url(#clip0_194_924)">
<path d="M0 5.13901H10.933L27.5088 52.4534L25.9217 51.8331L38.4417 19.4928L42.762 32.3403L25.4809 72.1234L0 5.13901ZM31.0355 5.13901H40.3814L58.5443 51.6559L56.6927 51.3015L72.2105 5.13901H82.2618L57.2217 71.9462L31.0355 5.13901Z" fill="white"/>
<path d="M182.993 4.7846C186.343 4.7846 189.429 5.25715 192.251 6.20226C195.131 7.08829 197.57 8.38782 199.569 10.1008C201.626 11.8138 203.213 13.9403 204.33 16.4803C205.505 18.9612 206.093 21.8556 206.093 25.1634C206.093 27.7034 205.711 30.2139 204.947 32.6948C204.183 35.1757 202.948 37.4203 201.244 39.4286C199.539 41.437 197.306 43.0614 194.543 44.3018C191.78 45.4832 188.342 46.0739 184.227 46.0739H174.881V69.1109H165.447V4.7846H182.993ZM184.051 37.0363C186.461 37.0363 188.459 36.6524 190.046 35.8845C191.692 35.1166 192.956 34.1715 193.838 33.0492C194.778 31.8678 195.425 30.6273 195.777 29.3278C196.189 27.9692 196.395 26.6697 196.395 25.4293C196.395 24.2479 196.189 23.0074 195.777 21.7079C195.425 20.4084 194.778 19.1679 193.838 17.9865C192.956 16.8052 191.751 15.8305 190.223 15.0626C188.694 14.2947 186.814 13.9108 184.58 13.9108H174.881V37.0363H184.051ZM194.896 42.5298L211.471 69.1109H200.539L183.698 42.7956L194.896 42.5298Z" fill="white"/>
<path d="M224.083 4.7846H233.517V59.9847H265.523V69.1109H224.083V4.7846Z" fill="white"/>
<path d="M279.275 69.1109V4.7846H297.085C303.433 4.7846 308.841 5.75924 313.308 7.70852C317.775 9.6578 321.361 12.2273 324.065 15.417C326.827 18.6068 328.826 22.1509 330.06 26.0495C331.353 29.948 332 33.8761 332 37.8338C332 42.6184 331.148 46.9304 329.443 50.7699C327.739 54.6094 325.417 57.9173 322.478 60.6935C319.539 63.4107 316.159 65.5076 312.338 66.9844C308.518 68.402 304.462 69.1109 300.171 69.1109H279.275ZM288.709 59.9847H298.408C301.876 59.9847 305.05 59.4826 307.93 58.4784C310.869 57.4743 313.396 55.9975 315.512 54.0482C317.687 52.099 319.362 49.7067 320.538 46.8713C321.714 44.036 322.301 40.7872 322.301 37.1249C322.301 33.1673 321.625 29.7413 320.274 26.8469C318.98 23.8935 317.246 21.4716 315.072 19.5814C312.897 17.6321 310.457 16.2145 307.754 15.3284C305.108 14.3833 302.405 13.9108 299.642 13.9108H288.709V59.9847Z" fill="white"/>
<path d="M50.6972 122.362L33.1835 79.2117H44.8218L57.0454 114.299L54.224 114.476L67.0966 79.2117H78.6468L60.1313 122.362V143.538H50.6972V122.362Z" fill="white"/>
<path d="M173.798 120.59C173.798 123.307 174.474 125.758 175.826 127.944C177.178 130.129 178.97 131.872 181.204 133.171C183.438 134.471 185.936 135.121 188.698 135.121C191.637 135.121 194.253 134.471 196.545 133.171C198.838 131.872 200.631 130.129 201.924 127.944C203.276 125.758 203.952 123.307 203.952 120.59V79.2117H213.209V120.855C213.209 125.522 212.122 129.627 209.947 133.171C207.772 136.656 204.833 139.374 201.13 141.323C197.427 143.272 193.283 144.247 188.698 144.247C184.231 144.247 180.146 143.272 176.443 141.323C172.74 139.374 169.801 136.656 167.626 133.171C165.51 129.627 164.452 125.522 164.452 120.855V79.2117H173.798V120.59Z" fill="white"/>
<path d="M241.629 79.2117C244.979 79.2117 248.065 79.6842 250.887 80.6293C253.767 81.5154 256.206 82.8149 258.205 84.5279C260.262 86.2409 261.849 88.3674 262.966 90.9074C264.141 93.3883 264.729 96.2827 264.729 99.5905C264.729 102.131 264.347 104.641 263.583 107.122C262.819 109.603 261.584 111.847 259.88 113.856C258.175 115.864 255.942 117.488 253.179 118.729C250.416 119.91 246.978 120.501 242.863 120.501H233.517V143.538H224.083V79.2117H241.629ZM242.687 111.463C245.097 111.463 247.095 111.079 248.682 110.312C250.328 109.544 251.592 108.599 252.474 107.476C253.414 106.295 254.061 105.054 254.413 103.755C254.825 102.396 255.03 101.097 255.03 99.8563C255.03 98.675 254.825 97.4345 254.413 96.135C254.061 94.8355 253.414 93.595 252.474 92.4136C251.592 91.2322 250.387 90.2576 248.859 89.4897C247.33 88.7218 245.449 88.3379 243.216 88.3379H233.517V111.463H242.687ZM253.532 116.957L270.107 143.538H259.174L242.334 117.223L253.532 116.957Z" fill="white"/>
<path d="M317.628 90.8188C315.395 89.6374 312.985 88.6332 310.399 87.8063C307.812 86.9793 305.314 86.5658 302.904 86.5658C299.613 86.5658 296.997 87.3337 295.057 88.8695C293.117 90.3462 292.148 92.3841 292.148 94.9832C292.148 96.8143 292.794 98.4092 294.087 99.7677C295.38 101.126 297.056 102.308 299.113 103.312C301.17 104.316 303.345 105.261 305.637 106.147C307.577 106.856 309.487 107.713 311.368 108.717C313.308 109.662 315.042 110.843 316.57 112.261C318.157 113.679 319.392 115.451 320.273 117.577C321.214 119.645 321.684 122.184 321.684 125.197C321.684 128.623 320.832 131.724 319.127 134.5C317.481 137.277 315.072 139.492 311.897 141.146C308.782 142.741 304.991 143.538 300.524 143.538C297.82 143.538 295.175 143.243 292.588 142.652C290.061 142.002 287.651 141.175 285.359 140.171C283.125 139.108 281.097 137.956 279.275 136.715L283.507 129.361C284.918 130.366 286.534 131.34 288.356 132.285C290.178 133.171 292.059 133.88 293.999 134.412C295.998 134.943 297.879 135.209 299.642 135.209C301.582 135.209 303.492 134.884 305.373 134.235C307.254 133.526 308.812 132.463 310.046 131.045C311.28 129.568 311.897 127.648 311.897 125.286C311.897 123.277 311.339 121.594 310.222 120.235C309.164 118.818 307.724 117.607 305.902 116.602C304.139 115.598 302.228 114.712 300.171 113.944C298.172 113.176 296.145 112.32 294.087 111.375C292.03 110.43 290.12 109.307 288.356 108.008C286.593 106.649 285.153 104.995 284.036 103.046C282.978 101.038 282.449 98.5864 282.449 95.692C282.449 92.266 283.242 89.283 284.83 86.743C286.475 84.144 288.738 82.1061 291.619 80.6293C294.499 79.1526 297.82 78.3257 301.582 78.1485C305.873 78.1485 309.605 78.6801 312.779 79.7433C315.953 80.8066 318.775 82.0765 321.243 83.5533L317.628 90.8188Z" fill="white"/>
<path d="M0.22924 117.914H3.6502V143.538H0.22924V117.914Z" fill="white"/>
<path d="M24.1649 122.486C23.295 122.037 22.3428 121.647 21.3083 121.316C20.2737 120.985 19.2627 120.82 18.2752 120.82C16.9116 120.82 15.8183 121.139 14.9954 121.777C14.196 122.415 13.7963 123.265 13.7963 124.329C13.7963 125.132 14.0549 125.817 14.5721 126.384C15.0894 126.928 15.7712 127.4 16.6177 127.802C17.4641 128.204 18.3458 128.582 19.2627 128.936C20.0621 129.243 20.8498 129.586 21.6257 129.964C22.4016 130.342 23.0952 130.814 23.7065 131.382C24.3413 131.949 24.835 132.646 25.1877 133.473C25.5639 134.3 25.752 135.327 25.752 136.556C25.752 137.903 25.4111 139.131 24.7292 140.242C24.0709 141.352 23.1187 142.227 21.8725 142.865C20.6264 143.502 19.1452 143.821 17.4288 143.821C16.3003 143.821 15.2187 143.692 14.1842 143.432C13.1732 143.172 12.2327 142.841 11.3628 142.439C10.4929 142.014 9.71697 141.577 9.03513 141.128L10.5516 138.434C11.1159 138.836 11.7625 139.226 12.4914 139.604C13.2202 139.958 13.9844 140.254 14.7838 140.49C15.5832 140.703 16.359 140.809 17.1114 140.809C17.9108 140.809 18.6985 140.667 19.4743 140.384C20.2737 140.076 20.9321 139.616 21.4493 139.001C21.9666 138.387 22.2252 137.572 22.2252 136.556C22.2252 135.682 21.9901 134.961 21.5199 134.394C21.0731 133.803 20.4736 133.307 19.7212 132.906C18.9688 132.48 18.1694 132.102 17.323 131.771C16.5236 131.464 15.7125 131.133 14.8896 130.779C14.0666 130.401 13.3025 129.952 12.5972 129.432C11.8918 128.889 11.3275 128.227 10.9043 127.448C10.4811 126.668 10.2695 125.723 10.2695 124.612C10.2695 123.265 10.5869 122.096 11.2217 121.103C11.88 120.088 12.7735 119.296 13.9021 118.729C15.0306 118.138 16.3238 117.819 17.7815 117.772C19.4273 117.772 20.8733 117.973 22.1194 118.375C23.3891 118.776 24.5059 119.272 25.4698 119.863L24.1649 122.486Z" fill="white"/>
<path d="M95.6303 56.4895C95.5834 56.4438 95.5366 56.3979 95.4899 56.3519C92.4921 53.3394 90.141 49.8543 88.4363 45.8967C86.7905 41.88 85.9676 37.568 85.9676 32.9606L85.8839 114.139C85.8973 109.749 86.7202 105.592 88.3524 101.666C90.0571 97.7089 92.4082 94.1942 95.406 91.1227C95.4764 91.0505 95.547 90.9787 95.618 90.9074L95.6303 56.4895Z" fill="white"/>
<path d="M151.389 33.0716C151.375 37.5781 150.523 41.7941 148.832 45.7195C147.128 49.6771 144.747 53.1622 141.69 56.1747C141.679 56.1866 141.667 56.1985 141.655 56.2104L141.642 91.1581C144.681 94.2213 147.05 97.7241 148.748 101.666C150.453 105.624 151.305 109.818 151.305 114.248L151.389 33.0716Z" fill="white"/>
<path fill-rule="evenodd" clip-rule="evenodd" d="M88.4363 20.3788C86.7905 24.3365 85.9676 28.5304 85.9676 32.9606C85.9676 37.568 86.7905 41.88 88.4363 45.8967C90.141 49.8543 92.4921 53.3394 95.4899 56.3519L95.6303 56.4895L95.6662 32.9606C95.6662 29.7118 96.2246 26.6402 97.3414 23.7458C98.517 20.8514 100.163 18.3114 102.279 16.1259C104.395 13.9403 106.834 12.2273 109.597 10.9869C112.36 9.7464 115.387 9.12618 118.678 9.12618C121.852 9.12618 124.821 9.7464 127.583 10.9869C130.405 12.2273 132.844 13.9403 134.901 16.1259C137.018 18.3114 138.663 20.8514 139.839 23.7458C141.073 26.5811 141.69 29.6527 141.69 32.9606C141.69 32.9899 141.69 33.0193 141.69 33.0486L141.655 56.2104L141.69 56.1747C144.747 53.1622 147.128 49.6771 148.832 45.7195C150.523 41.7941 151.375 37.5781 151.389 33.0716L151.389 32.9606C151.389 28.5304 150.537 24.3365 148.832 20.3788C147.128 16.4212 144.747 12.9066 141.69 9.83501C138.634 6.76341 135.137 4.37111 131.198 2.65811C127.26 0.886036 123.057 0 118.59 0C114.064 0 109.832 0.886036 105.894 2.65811C101.956 4.37111 98.4876 6.76341 95.4899 9.83501C92.4921 12.9066 90.141 16.4212 88.4363 20.3788Z" fill="white"/>
<path fill-rule="evenodd" clip-rule="evenodd" d="M85.8839 114.139L85.8837 114.248C85.8837 118.856 86.7066 123.168 88.3524 127.184C90.0571 131.142 92.4082 134.627 95.406 137.64C98.4037 140.593 101.872 142.897 105.81 144.551C109.748 146.205 113.98 147.032 118.506 147.032C122.974 147.032 127.176 146.205 131.114 144.551C135.111 142.838 138.609 140.475 141.607 137.462C144.663 134.45 147.044 130.965 148.748 127.007C150.453 123.05 151.305 118.797 151.305 114.248C151.305 109.818 150.453 105.624 148.748 101.666C147.05 97.7241 144.681 94.2213 141.642 91.1581L141.607 114.248C141.607 117.556 141.019 120.657 139.843 123.552C138.668 126.387 137.022 128.897 134.906 131.083C132.848 133.209 130.438 134.893 127.676 136.133C124.913 137.315 121.945 137.905 118.771 137.905C115.538 137.905 112.511 137.315 109.689 136.133C106.927 134.893 104.487 133.209 102.371 131.083C100.255 128.897 98.5801 126.387 97.3457 123.552C96.1701 120.657 95.5823 117.556 95.5823 114.248C95.5823 114.219 95.5824 114.189 95.5825 114.16L95.618 90.9074C95.547 90.9787 95.4764 91.0505 95.406 91.1227C92.4082 94.1942 90.0571 97.7089 88.3524 101.666C86.7202 105.592 85.8973 109.749 85.8839 114.139Z" fill="white"/>
</g>
<defs>
<clipPath id="clip0_194_924">
<rect width="332" height="147" fill="white"/>
</clipPath>
</defs>
</svg>
