<svg width="40" height="40" viewBox="0 0 40 40" fill="none" xmlns="http://www.w3.org/2000/svg">
<path d="M30.1494 11.8506C29.5629 11.2639 28.8667 10.7985 28.1003 10.481C27.334 10.1634 26.5126 10 25.6831 10C24.8535 10 24.0321 10.1634 23.2658 10.481C22.4994 10.7985 21.8032 11.2639 21.2167 11.8506L19.9997 13.0677L18.7826 11.8506C17.5981 10.6661 15.9915 10.0006 14.3163 10.0006C12.6411 10.0006 11.0346 10.6661 9.85001 11.8506C8.66547 13.0352 8 14.6417 8 16.3169C8 17.9921 8.66547 19.5987 9.85001 20.7833L11.0671 22.0003L19.9997 30.9329L28.9323 22.0003L30.1494 20.7833C30.7361 20.1968 31.2015 19.5006 31.519 18.7342C31.8366 17.9679 32 17.1465 32 16.3169C32 15.4874 31.8366 14.666 31.519 13.8997C31.2015 13.1333 30.7361 12.4371 30.1494 11.8506Z" stroke="#202020" stroke-width="2" stroke-linecap="round" stroke-linejoin="round"/>
</svg>
