<svg class="hover:fill-red" width="40" height="40" viewBox="0 0 40 40" fill="currentColor" xmlns="http://www.w3.org/2000/svg">
<path d="M20.0002 3.3335C10.8002 3.3335 3.3335 10.8002 3.3335 20.0002C3.3335 29.2002 10.8002 36.6668 20.0002 36.6668C29.2002 36.6668 36.6668 29.2002 36.6668 20.0002C36.6668 10.8002 29.2002 3.3335 20.0002 3.3335ZM27.7335 14.6668C27.4835 17.3002 26.4002 23.7002 25.8502 26.6502C25.6168 27.9002 25.1502 28.3168 24.7168 28.3668C23.7502 28.4502 23.0168 27.7335 22.0835 27.1168C20.6168 26.1502 19.7835 25.5502 18.3668 24.6168C16.7168 23.5335 17.7835 22.9335 18.7335 21.9668C18.9835 21.7168 23.2502 17.8335 23.3335 17.4835C23.3451 17.4305 23.3435 17.3754 23.329 17.3232C23.3145 17.2709 23.2874 17.2229 23.2502 17.1835C23.1502 17.1002 23.0168 17.1335 22.9002 17.1502C22.7502 17.1835 20.4168 18.7335 15.8668 21.8002C15.2002 22.2502 14.6002 22.4835 14.0668 22.4668C13.4668 22.4502 12.3335 22.1335 11.4835 21.8502C10.4335 21.5168 9.61683 21.3335 9.6835 20.7502C9.71683 20.4502 10.1335 20.1502 10.9168 19.8335C15.7835 17.7168 19.0168 16.3168 20.6335 15.6502C25.2668 13.7168 26.2168 13.3835 26.8502 13.3835C26.9835 13.3835 27.3002 13.4168 27.5002 13.5835C27.6668 13.7168 27.7168 13.9002 27.7335 14.0335C27.7168 14.1335 27.7502 14.4335 27.7335 14.6668Z" fill="white" fill-opacity="0.3" />
</svg>
