<svg width="40" height="40" viewBox="0 0 40 40" fill="none" xmlns="http://www.w3.org/2000/svg">
<path d="M27.6664 9.7C26.5271 8.39937 25.8993 6.72905 25.8998 5H20.7498V25.6667C20.7101 26.785 20.2379 27.8444 19.4327 28.6216C18.6275 29.3988 17.5522 29.8332 16.4331 29.8333C14.0664 29.8333 12.0998 27.9 12.0998 25.5C12.0998 22.6333 14.8664 20.4833 17.7164 21.3667V16.1C11.9664 15.3333 6.93311 19.8 6.93311 25.5C6.93311 31.05 11.5331 35 16.4164 35C21.6498 35 25.8998 30.75 25.8998 25.5V15.0167C27.9881 16.5164 30.4954 17.3211 33.0664 17.3167V12.1667C33.0664 12.1667 29.9331 12.3167 27.6664 9.7Z" fill="white" fill-opacity="0.3"/>
</svg>
