<svg width="40" height="40" viewBox="0 0 40 40" fill="none" xmlns="http://www.w3.org/2000/svg">
<path d="M13.0002 3.3335H27.0002C32.3335 3.3335 36.6668 7.66683 36.6668 13.0002V27.0002C36.6668 29.5639 35.6484 32.0227 33.8355 33.8355C32.0227 35.6484 29.5639 36.6668 27.0002 36.6668H13.0002C7.66683 36.6668 3.3335 32.3335 3.3335 27.0002V13.0002C3.3335 10.4364 4.35195 7.97765 6.1648 6.1648C7.97765 4.35195 10.4364 3.3335 13.0002 3.3335ZM12.6668 6.66683C11.0755 6.66683 9.54941 7.29897 8.42419 8.42419C7.29897 9.54941 6.66683 11.0755 6.66683 12.6668V27.3335C6.66683 30.6502 9.35016 33.3335 12.6668 33.3335H27.3335C28.9248 33.3335 30.4509 32.7014 31.5761 31.5761C32.7014 30.4509 33.3335 28.9248 33.3335 27.3335V12.6668C33.3335 9.35016 30.6502 6.66683 27.3335 6.66683H12.6668ZM28.7502 9.16683C29.3027 9.16683 29.8326 9.38632 30.2233 9.77702C30.614 10.1677 30.8335 10.6976 30.8335 11.2502C30.8335 11.8027 30.614 12.3326 30.2233 12.7233C29.8326 13.114 29.3027 13.3335 28.7502 13.3335C28.1976 13.3335 27.6677 13.114 27.277 12.7233C26.8863 12.3326 26.6668 11.8027 26.6668 11.2502C26.6668 10.6976 26.8863 10.1677 27.277 9.77702C27.6677 9.38632 28.1976 9.16683 28.7502 9.16683ZM20.0002 11.6668C22.2103 11.6668 24.3299 12.5448 25.8927 14.1076C27.4555 15.6704 28.3335 17.79 28.3335 20.0002C28.3335 22.2103 27.4555 24.3299 25.8927 25.8927C24.3299 27.4555 22.2103 28.3335 20.0002 28.3335C17.79 28.3335 15.6704 27.4555 14.1076 25.8927C12.5448 24.3299 11.6668 22.2103 11.6668 20.0002C11.6668 17.79 12.5448 15.6704 14.1076 14.1076C15.6704 12.5448 17.79 11.6668 20.0002 11.6668ZM20.0002 15.0002C18.6741 15.0002 17.4023 15.5269 16.4646 16.4646C15.5269 17.4023 15.0002 18.6741 15.0002 20.0002C15.0002 21.3262 15.5269 22.598 16.4646 23.5357C17.4023 24.4734 18.6741 25.0002 20.0002 25.0002C21.3262 25.0002 22.598 24.4734 23.5357 23.5357C24.4734 22.598 25.0002 21.3262 25.0002 20.0002C25.0002 18.6741 24.4734 17.4023 23.5357 16.4646C22.598 15.5269 21.3262 15.0002 20.0002 15.0002Z" fill="white" fill-opacity="0.3"/>
</svg>
